<?xml version="1.0" encoding="iso-8859-1"?>
<!-- Uploaded to: SVG Repo, www.svgrepo.com, Generator: SVG Repo Mixer Tools -->
<svg height="800px" width="800px" version="1.1" id="Layer_1" xmlns="http://www.w3.org/2000/svg" xmlns:xlink="http://www.w3.org/1999/xlink" 
	 viewBox="0 0 512 512" xml:space="preserve">
<path style="fill:#4D4D4D;" d="M429.421,380.406L453.624,512H58.363l24.217-131.594
	C124.742,428.891,387.258,428.891,429.421,380.406z"/>
<path style="fill:#F95428;" d="M485.792,229.792c0,57.561-21.269,110.235-56.372,150.6v0.013
	C387.258,428.891,325.146,459.585,256,459.585s-131.258-30.694-173.421-79.179v-0.013c-35.103-40.365-56.372-93.039-56.372-150.6
	C26.208,103.085,129.293,0,256,0S485.792,103.085,485.792,229.792z"/>
<path style="fill:#E6E6E6;" d="M256,45.253c101.754,0,184.54,82.786,184.54,184.54S357.754,414.332,256,414.332
	S71.46,331.546,71.46,229.792S154.246,45.253,256,45.253z"/>
<g>
	<path style="fill:#F95428;" d="M256,90.505c76.8,0,139.287,62.487,139.287,139.287S332.8,369.08,256,369.08
		c-76.813,0-139.287-62.487-139.287-139.287S179.187,90.505,256,90.505z M350.035,229.792c0-51.846-42.188-94.035-94.035-94.035
		c-51.859,0-94.035,42.188-94.035,94.035c0,51.859,42.175,94.035,94.035,94.035C307.846,323.827,350.035,281.652,350.035,229.792z"
		/>
	<path style="fill:#F95428;" d="M256,181.01c26.893,0,48.782,21.889,48.782,48.782c0,26.906-21.889,48.782-48.782,48.782
		c-26.906,0-48.782-21.876-48.782-48.782C207.218,202.899,229.094,181.01,256,181.01z"/>
</g>
</svg>